name rise38.3101peak57.3503fall81.6963.mot
datacolumns 19
datarows 18
range 15.74828300000000 15.77661600000000
endheader
time	ground_force1_vx	ground_force1_vy	ground_force1_vz	ground_force1_px	ground_force1_py	ground_force1_pz	ground_force2_vx	ground_force2_vy	ground_force2_vz	ground_force2_px	ground_force2_py	ground_force2_pz	ground_torque1_x	ground_torque1_y	ground_torque1_z	ground_torque2_x	ground_torque2_y	ground_torque2_z	
15.74828300000000	59.25992400000000	766.00838699999997	60.99006800000000	0.35333400000000	0.00000000000000	0.11481900000000	0.00000000000000	0.00000000000000	0.00000000000000	0.00000000000000	0.00000000000000	0.00000000000000	0.00000000000000	28.77489500000000	0.00000000000000	0.00000000000000	0.00000000000000	0.00000000000000	
15.74994700000000	58.10335300000000	765.58458700000006	60.94103500000000	0.35169600000000	0.00000000000000	0.11489700000000	0.00000000000000	0.00000000000000	0.00000000000000	0.00000000000000	0.00000000000000	0.00000000000000	0.00000000000000	28.80338200000000	0.00000000000000	0.00000000000000	0.00000000000000	0.00000000000000	
15.75161200000000	56.96825700000000	765.10658899999999	60.89022600000000	0.35005200000000	0.00000000000000	0.11497900000000	0.00000000000000	0.00000000000000	0.00000000000000	0.00000000000000	0.00000000000000	0.00000000000000	0.00000000000000	28.82695500000000	0.00000000000000	0.00000000000000	0.00000000000000	0.00000000000000	
15.75327600000000	55.85583800000000	764.57666300000005	60.83771700000000	0.34840200000000	0.00000000000000	0.11506400000000	0.00000000000000	0.00000000000000	0.00000000000000	0.00000000000000	0.00000000000000	0.00000000000000	0.00000000000000	28.84560400000000	0.00000000000000	0.00000000000000	0.00000000000000	0.00000000000000	
15.75494900000000	54.76717400000000	763.99699099999998	60.78352800000000	0.34674800000000	0.00000000000000	0.11515200000000	0.00000000000000	0.00000000000000	0.00000000000000	0.00000000000000	0.00000000000000	0.00000000000000	0.00000000000000	28.85929500000000	0.00000000000000	0.00000000000000	0.00000000000000	0.00000000000000	
15.75661400000000	53.70321900000000	763.36968000000002	60.72762600000000	0.34509200000000	0.00000000000000	0.11524200000000	0.00000000000000	0.00000000000000	0.00000000000000	0.00000000000000	0.00000000000000	0.00000000000000	0.00000000000000	28.86797900000000	0.00000000000000	0.00000000000000	0.00000000000000	0.00000000000000	
15.75827900000000	52.66480800000000	762.69676300000003	60.66993000000000	0.34343400000000	0.00000000000000	0.11533500000000	0.00000000000000	0.00000000000000	0.00000000000000	0.00000000000000	0.00000000000000	0.00000000000000	0.00000000000000	28.87158900000000	0.00000000000000	0.00000000000000	0.00000000000000	0.00000000000000	
15.75994800000000	51.65265900000000	761.98021400000005	60.61031600000000	0.34177700000000	0.00000000000000	0.11543000000000	0.00000000000000	0.00000000000000	0.00000000000000	0.00000000000000	0.00000000000000	0.00000000000000	0.00000000000000	28.87004600000000	0.00000000000000	0.00000000000000	0.00000000000000	0.00000000000000	
15.76161000000000	50.66737300000000	761.22195199999999	60.54861700000000	0.34012100000000	0.00000000000000	0.11552800000000	0.00000000000000	0.00000000000000	0.00000000000000	0.00000000000000	0.00000000000000	0.00000000000000	0.00000000000000	28.86325700000000	0.00000000000000	0.00000000000000	0.00000000000000	0.00000000000000	
15.76328100000000	49.70944000000000	760.42385300000001	60.48463100000000	0.33846900000000	0.00000000000000	0.11562700000000	0.00000000000000	0.00000000000000	0.00000000000000	0.00000000000000	0.00000000000000	0.00000000000000	0.00000000000000	28.85112500000000	0.00000000000000	0.00000000000000	0.00000000000000	0.00000000000000	
15.76494800000000	48.77924000000000	759.58775300000002	60.41812500000000	0.33682100000000	0.00000000000000	0.11572800000000	0.00000000000000	0.00000000000000	0.00000000000000	0.00000000000000	0.00000000000000	0.00000000000000	0.00000000000000	28.83354200000000	0.00000000000000	0.00000000000000	0.00000000000000	0.00000000000000	
15.76660700000000	47.87704800000000	758.71545800000001	60.34883700000000	0.33517900000000	0.00000000000000	0.11583100000000	0.00000000000000	0.00000000000000	0.00000000000000	0.00000000000000	0.00000000000000	0.00000000000000	0.00000000000000	28.81040000000000	0.00000000000000	0.00000000000000	0.00000000000000	0.00000000000000	
15.76828300000000	47.00303900000000	757.80875300000002	60.27648400000000	0.33354400000000	0.00000000000000	0.11593500000000	0.00000000000000	0.00000000000000	0.00000000000000	0.00000000000000	0.00000000000000	0.00000000000000	0.00000000000000	28.78158700000000	0.00000000000000	0.00000000000000	0.00000000000000	0.00000000000000	
15.76994000000000	46.15728800000000	756.86940300000003	60.20076300000000	0.33191700000000	0.00000000000000	0.11604000000000	0.00000000000000	0.00000000000000	0.00000000000000	0.00000000000000	0.00000000000000	0.00000000000000	0.00000000000000	28.74699500000000	0.00000000000000	0.00000000000000	0.00000000000000	0.00000000000000	
15.77161600000000	45.33978000000000	755.89916500000004	60.12135900000000	0.33030000000000	0.00000000000000	0.11614600000000	0.00000000000000	0.00000000000000	0.00000000000000	0.00000000000000	0.00000000000000	0.00000000000000	0.00000000000000	28.70651600000000	0.00000000000000	0.00000000000000	0.00000000000000	0.00000000000000	
15.77327700000000	44.55041100000000	754.89978900000006	60.03794600000000	0.32869400000000	0.00000000000000	0.11625300000000	0.00000000000000	0.00000000000000	0.00000000000000	0.00000000000000	0.00000000000000	0.00000000000000	0.00000000000000	28.66005000000000	0.00000000000000	0.00000000000000	0.00000000000000	0.00000000000000	
15.77494300000000	43.78899200000000	753.87302499999998	59.95019700000000	0.32710000000000	0.00000000000000	0.11636100000000	0.00000000000000	0.00000000000000	0.00000000000000	0.00000000000000	0.00000000000000	0.00000000000000	0.00000000000000	28.60750300000000	0.00000000000000	0.00000000000000	0.00000000000000	0.00000000000000	
15.77661600000000	43.05525900000000	752.82062900000005	59.85778100000000	0.32552000000000	0.00000000000000	0.11646800000000	0.00000000000000	0.00000000000000	0.00000000000000	0.00000000000000	0.00000000000000	0.00000000000000	0.00000000000000	28.54879200000000	0.00000000000000	0.00000000000000	0.00000000000000	0.00000000000000	
